<?xml version="1.0" encoding="UTF-8" standalone="no"?>
<svg
   xmlns:dc="http://purl.org/dc/elements/1.1/"
   xmlns:cc="http://creativecommons.org/ns#"
   xmlns:rdf="http://www.w3.org/1999/02/22-rdf-syntax-ns#"
   xmlns:svg="http://www.w3.org/2000/svg"
   xmlns="http://www.w3.org/2000/svg"
   id="svg4"
   xml:space="preserve"
   enable-background="new 0 0 200 200"
   viewBox="0 0 200 200"
   y="0px"
   x="0px"
   version="1.1"><metadata
     id="metadata10"><rdf:RDF><cc:Work
         rdf:about=""><dc:format>image/svg+xml</dc:format><dc:type
           rdf:resource="http://purl.org/dc/dcmitype/StillImage" /></cc:Work></rdf:RDF></metadata><defs
     id="defs8" /><path
     id="path2"
     d="m75.162 45.51c-0.71299-0.006-1.5388 0.003-1.834 0.01801-0.29532 0.01801-0.76191 0.04922-1.0371 0.07233-0.27491 0.02401-0.84198 0.08193-1.2598 0.13295-0.41744 0.05042-1.0155 0.13325-1.3281 0.18367s-0.89862 0.16026-1.3027 0.2422c-0.40372 0.08163-1.0312 0.22029-1.3945 0.31053-0.36335 0.09004-0.92605 0.2413-1.2519 0.33595-0.32593 0.09454-0.85006 0.2566-1.166 0.35936-0.31555 0.10294-0.83247 0.28271-1.1484 0.40039-0.31558 0.11765-0.74877 0.28421-0.96287 0.36915-0.21368 0.08523-0.67287 0.28001-1.0195 0.43358-0.34634 0.15336-0.99183 0.4617-1.4356 0.68361-0.44412 0.22179-1.0949 0.56305-1.4453 0.75975-0.35078 0.19718-0.87824 0.50915-1.1738 0.69142-0.29532 0.18217-0.81215 0.51542-1.1484 0.74022-0.33631 0.22479-0.79544 0.54088-1.0195 0.70315-0.22419 0.16236-0.62383 0.46312-0.88865 0.66795-0.2647 0.20468-0.719 0.57065-1.0098 0.81251-0.29052 0.2419-0.79057 0.67599-1.1113 0.96485-0.32041 0.28842-0.86623 0.80792-1.2129 1.1543-0.34631 0.34631-0.82467 0.84196-1.0625 1.1016-0.2383 0.2593-0.62365 0.6925-0.85549 0.9629-0.23139 0.27011-0.5873 0.70018-0.791 0.95507-0.20408 0.2545-0.52134 0.66371-0.7051 0.90819-0.18367 0.2446-0.5403 0.7388-0.79295 1.0996-0.2527 0.36113-0.6732 0.99778-0.93361 1.4141-0.2608 0.41669-0.65639 1.0785-0.88085 1.4727-0.22419 0.39409-0.62806 1.1592-0.89844 1.6992-0.27011 0.53964-0.60681 1.2387-0.7461 1.5547-0.13926 0.31558-0.40969 0.96638-0.60156 1.4453-0.19148 0.4789-0.5054 1.3359-0.69727 1.9063-0.19178 0.57041-0.43172 1.3289-0.53319 1.6855-0.10144 0.35633-0.2596 0.94778-0.35159 1.3145-0.09214 0.36669-0.22449 0.93379-0.29502 1.2598-0.07053 0.32593-0.17737 0.86915-0.2383 1.2051-0.06122 0.33592-0.15516 0.88475-0.20708 1.2207-0.05192 0.33592-0.12785 0.8867-0.16807 1.2227-0.04022 0.33592-0.09934 0.88547-0.13085 1.2207-0.03151 0.33517-0.07593 1.0572-0.09964 1.6035-0.03211 0.75744-0.03151 1.242 0.002 2.039 0.02401 0.57524 0.06783 1.2941 0.09754 1.5996 0.03001 0.30555 0.08734 0.81236 0.12905 1.125 0.04142 0.3126 0.11855 0.81281 0.16987 1.1113 0.05102 0.29862 0.15096 0.81837 0.22269 1.1543 0.07173 0.33595 0.18097 0.81062 0.2422 1.0547 0.06122 0.2437 0.20138 0.75111 0.31056 1.1289 0.10954 0.3774 0.3006 0.98271 0.42383 1.3457 0.12335 0.36296 0.33265 0.94228 0.46486 1.2871 0.13235 0.34448 0.3629 0.91377 0.51365 1.2656 0.15066 0.3515 0.40984 0.9304 0.57617 1.2871 0.16597 0.35633 0.46302 0.9569 0.65822 1.334 0.19508 0.37668 0.52092 0.9849 0.72461 1.3516 0.20378 0.36669 0.59631 1.0415 0.8711 1.5 0.27491 0.45819 0.6738 1.109 0.88865 1.4453 0.21428 0.33596 0.68916 1.0597 1.0547 1.6074 0.36522 0.5482 0.87461 1.2975 1.1309 1.666 0.2563 0.3689 0.69916 0.9951 0.98436 1.3926 0.28481 0.39706 0.89508 1.2228 1.3555 1.834 0.46041 0.61113 1.0728 1.4107 1.3613 1.7773 0.28842 0.36668 0.80174 1.0099 1.1406 1.4277 0.33928 0.41744 0.8708 1.0575 1.1797 1.4238 0.30891 0.36669 0.84424 0.99127 1.1895 1.3887 0.3452 0.39781 0.91834 1.0479 1.2754 1.4453 0.35744 0.39706 0.9756 1.0726 1.373 1.5 0.39781 0.42743 1.1161 1.1863 1.5977 1.6856 0.48151 0.49966 1.4316 1.4582 2.1113 2.1308 0.67971 0.67263 1.5619 1.5315 1.959 1.9082 0.39742 0.37671 1.0551 0.99241 1.4629 1.3692 0.4078 0.37704 1.5421 1.4029 2.5195 2.2793 0.97746 0.87668 2.4525 2.1944 3.2773 2.9277 0.82527 0.73298 2.1416 1.8983 2.9258 2.5898 0.78448 0.69114 1.6936 1.4918 2.0195 1.7793 0.32596 0.28691 1.4582 1.2783 2.5176 2.2051 1.0594 0.92638 2.7607 2.4106 3.7793 3.2969 1.0186 0.88634 4.001 3.4761 6.6289 5.7558 2.6279 2.2798 5.8679 5.095 7.1992 6.2539 1.3312 1.1594 2.9197 2.5398 3.5313 3.0684 0.61116 0.52893 1.1339 0.95552 1.1601 0.94922 0.027-0.006 0.52746-0.41867 1.1152-0.91797 0.58784-0.49928 1.8933-1.6132 2.9004-2.4766 1.0067-0.86377 2.3905-2.0554 3.0742-2.6484 0.68376-0.59301 2.0508-1.7875 3.039-2.6524 0.9882-0.86524 2.4477-2.1466 3.2422-2.8496 0.79448-0.703 1.9938-1.7699 2.666-2.3711 0.67224-0.60077 1.8141-1.6255 2.5371-2.2773 0.72341-0.65189 1.874-1.6945 2.5566-2.3164 0.68265-0.62227 1.8895-1.7314 2.6836-2.4648 0.79414-0.73373 1.8447-1.707 2.334-2.164 0.48929-0.45709 1.4968-1.4072 2.2402-2.1113 0.74337-0.70414 1.7852-1.6978 2.3145-2.207 0.52929-0.50927 1.7377-1.6859 2.6855-2.6152 0.94781-0.92893 2.3321-2.3123 3.0762-3.0742 0.74372-0.76146 1.7106-1.7602 2.1484-2.2187 0.43743-0.45816 1.0134-1.0664 1.2793-1.3516 0.26591-0.28481 0.75894-0.81968 1.0938-1.1875 0.33484-0.3674 0.89999-0.99958 1.2578-1.4063 0.35777-0.4063 0.88385-1.0156 1.168-1.3516 0.28421-0.33632 0.7934-0.95174 1.1308-1.3692 0.33743-0.41783 0.762-0.95144 0.94532-1.1855 0.18307-0.23439 0.5241-0.67683 0.75783-0.98241 0.23379-0.30558 0.70798-0.93775 1.0547-1.4063 0.34667-0.46855 0.89913-1.2273 1.2266-1.6855 0.32779-0.45852 0.92466-1.3083 1.3262-1.8887 0.40186-0.58079 1.2002-1.7652 1.7754-2.6308 0.5756-0.86596 1.3399-2.0235 1.6973-2.5742 0.35705-0.55078 0.8008-1.2564 0.98634-1.5664 0.18547-0.31002 0.49066-0.84288 0.67773-1.1836 0.18757-0.34115 0.48628-0.92044 0.66407-1.2871 0.17737-0.36669 0.47329-1.0155 0.65624-1.4434 0.18338-0.42779 0.44163-1.0714 0.57422-1.4277 0.13235-0.35669 0.33562-0.93856 0.45117-1.2949 0.11585-0.35669 0.29802-0.96452 0.40624-1.3516 0.10804-0.38706 0.27191-1.0379 0.36525-1.4453 0.0933-0.40744 0.22028-1.0156 0.28121-1.3516 0.0612-0.33595 0.14496-0.8361 0.18547-1.1113 0.0408-0.27521 0.0984-0.70081 0.12875-0.94532 0.0303-0.2443 0.0822-0.72788 0.11315-1.0742 0.0312-0.34631 0.0732-0.93742 0.0936-1.3145 0.021-0.37707 0.0372-1.1595 0.0372-1.7402 0-0.58079-0.018-1.3651-0.0372-1.7422-0.021-0.37704-0.0645-0.97572-0.0957-1.332-0.0312-0.35669-0.0969-0.97404-0.14646-1.3711-0.0501-0.39742-0.14256-1.0312-0.20498-1.4082-0.0627-0.37707-0.17857-1.0016-0.2578-1.3887-0.0792-0.38706-0.2362-1.0694-0.34766-1.5176-0.11135-0.44817-0.29382-1.1325-0.40624-1.5195-0.11225-0.38706-0.3061-1.0116-0.43167-1.3887-0.12605-0.37704-0.36038-1.0381-0.52148-1.4707-0.16087-0.43262-0.43239-1.1169-0.60351-1.5195-0.17137-0.40261-0.44733-1.0245-0.61327-1.3808-0.16596-0.35669-0.47326-0.98124-0.68361-1.3887-0.21038-0.40744-0.55066-1.0345-0.75585-1.3945-0.20528-0.36002-0.49199-0.85297-0.63868-1.0937-0.14676-0.241-0.48851-0.77032-0.75781-1.1778-0.2692-0.40744-0.70248-1.0323-0.9629-1.3887-0.2599-0.35669-0.63175-0.84928-0.82617-1.0938-0.19417-0.2446-0.5198-0.64421-0.72461-0.88868-0.20498-0.2446-0.59492-0.69144-0.86716-0.9922-0.27191-0.30078-0.75492-0.80816-1.0742-1.1289-0.3189-0.32077-0.80489-0.79078-1.0801-1.043-0.27491-0.2521-0.7415-0.65918-1.0371-0.90624-0.29532-0.247-0.75474-0.6174-1.0195-0.82227-0.2647-0.20438-0.72202-0.54631-1.0176-0.7578-0.29532-0.21158-0.82164-0.57017-1.168-0.79688-0.3463-0.22689-0.85368-0.54613-1.1289-0.71095-0.27491-0.16477-0.71759-0.41888-0.98241-0.56443-0.26471-0.14586-0.86354-0.45444-1.332-0.68556-0.46855-0.23079-1.1433-0.54307-1.5-0.69532-0.35633-0.15186-0.91624-0.3774-1.2422-0.5-0.32596-0.12215-0.90029-0.32356-1.2773-0.44727-0.37671-0.12335-0.86012-0.27281-1.0742-0.33397-0.21369-0.06062-0.61348-0.16987-0.88865-0.2404-0.27491-0.07083-0.73689-0.17947-1.0254-0.2422-0.28812-0.06303-0.8461-0.17197-1.2402-0.2422-0.39408-0.06993-1.0739-0.16897-1.5117-0.22059-0.43817-0.05162-1.0384-0.11645-1.334-0.14256-0.34297-0.03031-1.1386-0.04712-2.2031-0.04682-1.3045 0.00036-1.8254 0.01501-2.3906 0.06633-0.39705 0.03661-1.0292 0.10774-1.4063 0.15816-0.37707 0.05042-0.97002 0.14226-1.3164 0.20498-0.34631 0.06213-0.85375 0.16296-1.1289 0.22449-0.27521 0.06152-0.69168 0.16236-0.92578 0.22269-0.23409 0.06002-0.67683 0.18217-0.98241 0.27161-0.30558 0.09004-0.84645 0.262-1.2031 0.3828-0.3563 0.12125-0.92382 0.32869-1.2598 0.46092-0.33595 0.13175-0.82701 0.33574-1.0918 0.45315-0.26471 0.11705-0.76498 0.34988-1.1113 0.51951-0.34631 0.16957-0.86324 0.43784-1.1484 0.59376-0.28511 0.15636-0.78538 0.44313-1.1113 0.63868-0.32596 0.19508-0.8931 0.55642-1.2598 0.80273-0.36669 0.2464-0.86684 0.59502-1.1114 0.77539-0.24459 0.18037-0.71839 0.54949-1.0547 0.81837-0.33596 0.26921-0.81942 0.67158-1.0742 0.89454-0.2545 0.22269-0.60402 0.53616-0.77734 0.69727-0.17287 0.16086-0.57845 0.54568-0.89844 0.85351l-0.58202 0.55858 0.26561 0.36915c0.14585 0.20228 0.86377 1.2002 1.5957 2.2188 0.73226 1.0186 1.3387 1.8591 1.3457 1.8672 0.006 0.009 0.35029-0.3154 0.76368-0.71876 0.41299-0.40336 1.0064-0.96422 1.3183-1.2461 0.31189-0.28181 0.7786-0.68992 1.0371-0.90624 0.2587-0.21639 0.73196-0.59022 1.0527-0.83205 0.32076-0.2416 0.8285-0.6039 1.1289-0.80468 0.30075-0.20048 0.73857-0.48202 0.97266-0.625 0.23409-0.14256 0.66095-0.38544 0.94727-0.54102 0.28601-0.15606 0.81041-0.42296 1.166-0.59373 0.35558-0.17077 0.87332-0.40507 1.1504-0.51954 0.27701-0.11494 0.76053-0.30075 1.0742-0.41407 0.31371-0.11345 0.8382-0.28932 1.166-0.38866 0.32818-0.09964 0.87098-0.2467 1.2051-0.32815 0.33409-0.08163 0.86416-0.19838 1.1797-0.2596 0.31597-0.06122 0.81611-0.14436 1.1113-0.18547 0.29562-0.04142 0.69538-0.09214 0.88869-0.11344 0.19357-0.02101 0.58589-0.05582 0.87109-0.07623 0.28511-0.02101 1.0065-0.03692 1.6035-0.03721 0.59709 0 1.3316 0.01801 1.6308 0.03902 0.29922 0.02101 0.82701 0.07143 1.1719 0.11134 0.34484 0.03992 0.87659 0.11615 1.1836 0.16807 0.30705 0.05192 0.79294 0.14316 1.0781 0.20318 0.28512 0.06032 0.77116 0.17497 1.0801 0.256 0.30853 0.08103 0.80871 0.22479 1.1114 0.31834 0.30225 0.09364 0.82082 0.26981 1.1523 0.39064 0.33149 0.12065 0.82128 0.31281 1.0898 0.42578 0.2686 0.11284 0.75366 0.33055 1.0782 0.48241 0.32485 0.15186 0.84261 0.41062 1.1504 0.5762 0.30781 0.16567 0.78575 0.43469 1.0605 0.59766 0.27521 0.16296 0.78259 0.48202 1.1289 0.71092 0.3463 0.22899 0.89669 0.61482 1.2226 0.85741 0.32593 0.2431 0.79265 0.60591 1.0371 0.80666 0.2446 0.20078 0.65372 0.5527 0.9082 0.78124 0.2548 0.22899 0.79531 0.7551 1.2031 1.1699 0.40745 0.41486 0.97374 1.0259 1.2578 1.3574 0.28362 0.33187 0.7139 0.85639 0.95507 1.166 0.241 0.31002 0.58104 0.76338 0.75589 1.0078 0.17436 0.2443 0.50348 0.72788 0.73241 1.0742 0.22839 0.34631 0.56665 0.87998 0.74999 1.1856 0.18338 0.30555 0.46921 0.8003 0.63476 1.0996 0.16566 0.29922 0.45069 0.84511 0.63478 1.2129 0.18397 0.3678 0.4608 0.94865 0.61524 1.289 0.15397 0.34076 0.43656 1.0109 0.62695 1.4902 0.18998 0.47929 0.4395 1.1465 0.55468 1.4824 0.11525 0.33592 0.3094 0.9461 0.43164 1.3535 0.12184 0.40744 0.31185 1.1065 0.42187 1.5547 0.10955 0.4482 0.25901 1.1204 0.33203 1.4941 0.0729 0.37335 0.17287 0.94045 0.22268 1.2598 0.0495 0.31891 0.11705 0.78814 0.14856 1.043 0.0312 0.2545 0.0801 0.74886 0.11135 1.0996 0.0306 0.35075 0.072 1.0715 0.0918 1.6016 0.024 0.62299 0.024 1.3118 0 1.9434-0.021 0.53781-0.0612 1.2411-0.0918 1.5645-0.0306 0.32299-0.0816 0.79598-0.11315 1.0508-0.0318 0.2545-0.10684 0.75162-0.16596 1.1035-0.0588 0.35225-0.18308 0.97734-0.27551 1.3906-0.0918 0.413-0.2581 1.0675-0.36915 1.4531-0.11074 0.38556-0.29472 0.97365-0.40822 1.3067-0.11375 0.33298-0.30012 0.8407-0.41405 1.1289-0.11404 0.28812-0.29831 0.73346-0.41017 0.98826-0.11194 0.2545-0.36627 0.78814-0.56443 1.1856-0.19808 0.39781-0.50426 0.97758-0.68167 1.2891-0.17707 0.31188-0.44447 0.76182-0.59372 1-0.14976 0.23829-0.54352 0.84811-0.875 1.3574-0.33187 0.50927-1.0532 1.6025-1.6035 2.4277-0.55042 0.82485-1.3009 1.9332-1.668 2.4629-0.36744 0.52968-0.91903 1.3124-1.2246 1.7402-0.30555 0.42779-0.94309 1.3-1.4179 1.9375-0.47485 0.63706-1.1613 1.537-1.5254 2-0.36446 0.46258-0.91368 1.1462-1.2207 1.5195-0.3067 0.37299-0.86336 1.0306-1.2364 1.461-0.37298 0.43076-1.0029 1.1416-1.4004 1.5801-0.39706 0.43853-0.97128 1.0643-1.2754 1.3906-0.30372 0.32596-0.91074 0.96915-1.3496 1.4277-0.43928 0.45819-1.3915 1.4381-2.1152 2.1777-0.72374 0.74006-2.2068 2.2156-3.2969 3.2793-1.09 1.0637-2.224 2.1667-2.5195 2.4512-0.29562 0.28451-1.1453 1.0928-1.8887 1.7969-0.74337 0.70414-1.7514 1.6543-2.2402 2.1113-0.48928 0.45705-1.5486 1.4398-2.3535 2.1836-0.80528 0.74339-2.105 1.9366-2.8887 2.6504-0.78373 0.71375-2.0914 1.8979-2.9062 2.6309-0.81485 0.73337-2.0906 1.8745-2.834 2.5371-0.7434 0.66224-1.9278 1.7124-2.6308 2.334-0.70261 0.62115-2.1342 1.8786-3.1836 2.7949-1.0489 0.91638-2.5255 2.2-3.2793 2.8516-0.75378 0.65189-1.6072 1.3898-1.8965 1.6387-0.28901 0.24939-0.543 0.45312-0.56446 0.45312-0.021 0-0.86708-0.72164-1.8808-1.6035-1.0134-0.88157-3.9932-3.4699-6.6211-5.75s-5.7444-4.987-6.9258-6.0156c-1.1815-1.029-3.0148-2.6288-4.0742-3.5566-1.0593-0.92746-2.7105-2.3782-3.668-3.2226-0.9575-0.84451-2.4915-2.2024-3.4082-3.0176-0.91672-0.81524-2.3986-2.1414-3.2949-2.9473-0.89634-0.80594-1.8967-1.7142-2.2227-2.0176-0.32593-0.30297-1.051-0.987-1.6113-1.5215-0.56002-0.53448-1.6031-1.5613-2.3164-2.2813-0.71374-0.72007-1.5874-1.6174-1.9434-1.9941-0.3563-0.37707-0.92311-0.98721-1.2598-1.3535-0.33667-0.36669-0.87869-0.96536-1.2051-1.332-0.32593-0.36669-0.93502-1.0677-1.3535-1.5566-0.41894-0.48892-1.0701-1.2645-1.4453-1.7226-0.37557-0.45856-0.96461-1.1911-1.3106-1.6289-0.34556-0.43818-0.97965-1.2636-1.4082-1.834-0.42818-0.57041-1.062-1.4369-1.4102-1.9258-0.34778-0.48892-0.83484-1.1808-1.0801-1.5371-0.2452-0.35669-0.71945-1.0649-1.0547-1.5742-0.3352-0.5093-0.80864-1.2514-1.0527-1.6484-0.2443-0.39745-0.62116-1.0295-0.83595-1.4062-0.21489-0.37707-0.53718-0.96131-0.71681-1.2969-0.17977-0.33592-0.4668-0.90312-0.63865-1.2598-0.17197-0.35705-0.41332-0.87365-0.53517-1.1484-0.12215-0.27521-0.32113-0.7491-0.44334-1.0547-0.12275-0.30558-0.3126-0.80324-0.42188-1.1055-0.10924-0.30225-0.28121-0.81915-0.38283-1.1484-0.10114-0.32926-0.2596-0.88973-0.35156-1.2461-0.09184-0.35669-0.22539-0.94052-0.29682-1.2969-0.07113-0.35669-0.16957-0.94054-0.22059-1.2969-0.05102-0.35669-0.11885-0.94781-0.14856-1.3145-0.03001-0.36669-0.06392-0.9581-0.07623-1.3145-0.012-0.35666-0.006-1.0218 0.01501-1.4785 0.02101-0.45705 0.06423-1.0911 0.09574-1.4082 0.03151-0.31741 0.09064-0.83484 0.13085-1.1504 0.04052-0.31594 0.12215-0.87551 0.18367-1.2422 0.06153-0.36669 0.16206-0.91708 0.22449-1.2227 0.06183-0.30558 0.17797-0.82716 0.2578-1.1602 0.07953-0.33337 0.2386-0.93391 0.35156-1.334 0.11344-0.40039 0.31056-1.0446 0.43946-1.4317 0.12935-0.38706 0.32719-0.94502 0.43943-1.2402 0.11254-0.29562 0.31308-0.7958 0.44532-1.1113 0.13175-0.31596 0.35954-0.83286 0.50585-1.1484 0.14586-0.31594 0.4114-0.85921 0.5918-1.207 0.18037-0.34781 0.48721-0.90876 0.68163-1.248 0.19448-0.33926 0.49874-0.84622 0.67581-1.1269 0.17677-0.28031 0.4642-0.71818 0.63865-0.97266 0.17407-0.2548 0.4822-0.69 0.68556-0.96485 0.20348-0.27521 0.53697-0.70843 0.74216-0.9629 0.20498-0.2548 0.57233-0.69529 0.81642-0.98046 0.2446-0.28511 0.87062-0.94532 1.3906-1.4668 0.52005-0.52116 1.1461-1.1222 1.3906-1.3359 0.2446-0.21368 0.64172-0.5503 0.8828-0.74805 0.2407-0.19778 0.66482-0.53097 0.94336-0.74024 0.27851-0.20918 0.69754-0.51318 0.93163-0.67578 0.23439-0.16266 0.6819-0.45735 0.99414-0.65624 0.31224-0.19928 0.82914-0.51354 1.1484-0.69727 0.31927-0.18337 0.95588-0.51918 1.4141-0.74805 0.45855-0.22929 1.1333-0.54526 1.5-0.70117 0.36669-0.15606 0.88364-0.36486 1.1484-0.46486 0.2647-0.09964 0.78925-0.28421 1.166-0.40819 0.37704-0.12425 0.8605-0.27461 1.0742-0.33595 0.21398-0.06153 0.66323-0.17917 0.99805-0.2617 0.33484-0.08223 0.90198-0.20798 1.2598-0.27941 0.35777-0.07173 0.9927-0.18067 1.4101-0.2401 0.4178-0.05972 1.0161-0.13295 1.332-0.16416 0.31597-0.03151 0.88304-0.07293 1.2598-0.09364 0.37707-0.02101 0.98778-0.03902 1.3574-0.03902 0.36966 0 0.84586 0.01801 1.0566 0.03902 0.21098 0.02101 0.58367 0.07053 0.82812 0.11134 0.2446 0.04082 0.7175 0.14226 1.0527 0.22449 0.33556 0.08223 0.9102 0.2482 1.2754 0.36915 0.36558 0.12125 0.94156 0.33001 1.2793 0.46486 0.33818 0.13475 0.93883 0.39433 1.3359 0.57617 0.39745 0.18217 1.0315 0.4903 1.4082 0.68553 0.37707 0.19478 0.95138 0.50492 1.2773 0.68751 0.32596 0.18307 0.92245 0.53205 1.3262 0.77539 0.40372 0.2434 1.0469 0.6431 1.4277 0.88865 0.38037 0.2455 0.98352 0.64667 1.3399 0.89258 0.35669 0.2461 0.88082 0.61464 1.166 0.81837 0.28511 0.20378 0.88577 0.6461 1.334 0.98241 0.44817 0.33631 1.1192 0.85075 1.4922 1.1445 0.37299 0.29382 0.68394 0.52851 0.68946 0.52149 0.006-0.006 0.71137-0.99901 1.5703-2.2031 0.85897-1.2042 1.5632-2.2045 1.5625-2.2227 0.009-0.01501-0.27101-0.2467-0.60936-0.51173-0.33908-0.265-0.96488-0.74466-1.3926-1.0664-0.42767-0.32179-1.172-0.86527-1.6523-1.207-0.48031-0.34109-1.0808-0.76365-1.336-0.93751-0.2545-0.17317-0.78094-0.52032-1.168-0.77146-0.38706-0.2512-0.99486-0.6361-1.3516-0.85354-0.3563-0.21729-0.88319-0.52851-1.1699-0.69334-0.28661-0.16477-0.77011-0.43613-1.0742-0.60354-0.30411-0.16747-0.95966-0.50804-1.459-0.75585-0.49892-0.2473-1.1665-0.56263-1.4824-0.70117-0.31558-0.13866-0.81696-0.34829-1.1133-0.46681-0.29682-0.11855-0.79691-0.30807-1.1113-0.41993-0.31482-0.11224-0.79709-0.27251-1.0723-0.35741-0.27491-0.08433-0.79178-0.22659-1.1484-0.31642-0.3563-0.09004-0.88079-0.20558-1.166-0.2578-0.28511-0.05252-0.76867-0.13025-1.0742-0.17197-0.45039-0.06152-0.80114-0.07773-1.8516-0.08794zm25.798 11.207c-0.009-0.00036-0.83133 1.1445-1.8262 2.5449-0.99484 1.4004-2.4008 3.3722-3.1231 4.3808-0.72224 1.0082-1.6507 2.3155-2.0644 2.9063-0.41371 0.59078-0.9762 1.3994-1.248 1.7969-0.27161 0.39706-0.8533 1.2636-1.293 1.9258-0.43968 0.66191-1.055 1.6049-1.3691 2.0938-0.3141 0.48892-0.83181 1.3048-1.1504 1.8145-0.31852 0.50963-0.88778 1.4431-1.2656 2.0742-0.37779 0.63115-0.92902 1.5722-1.2246 2.0918-0.29592 0.5193-0.7292 1.2949-0.9629 1.7227-0.23379 0.42782-0.65561 1.2201-0.93748 1.7598-0.28181 0.53967-0.72419 1.4156-0.98241 1.9453-0.2581 0.52968-0.62815 1.3048-0.82227 1.7227-0.19358 0.41744-0.47368 1.0332-0.6211 1.3691-0.14766 0.33592-0.38352 0.8867-0.52539 1.2227-0.14196 0.33592-0.35753 0.86047-0.48049 1.166-0.12305 0.30558-0.30708 0.77227-0.40819 1.0371-0.10144 0.26471-0.32134 0.86548-0.49024 1.334-0.16897 0.46855-0.4262 1.2103-0.57029 1.6484-0.14406 0.43778-0.35225 1.1162-0.46486 1.5058-0.11224 0.38964-0.27041 0.97155-0.35156 1.2949-0.08163 0.32335-0.19928 0.81269-0.2599 1.0879-0.06062 0.27491-0.16086 0.78454-0.22269 1.1309-0.06182 0.34631-0.14616 0.87383-0.18757 1.1738-0.04142 0.30012-0.10024 0.80936-0.13085 1.1308-0.03121 0.32152-0.07143 0.96699-0.08974 1.4356-0.02101 0.50931-0.02401 1.1954-0.002 1.7051 0.01801 0.46855 0.05972 1.1007 0.09184 1.4062 0.03181 0.30519 0.10054 0.82974 0.15246 1.166 0.05192 0.33592 0.14376 0.85284 0.20498 1.1484 0.06062 0.29532 0.16777 0.76651 0.2383 1.0469 0.07053 0.28031 0.20888 0.78058 0.30858 1.1113 0.09994 0.33076 0.27551 0.85531 0.38868 1.166 0.11254 0.31078 0.28842 0.7648 0.3906 1.0078 0.10234 0.24339 0.30354 0.69621 0.44727 1.0058 0.14346 0.30927 0.38703 0.79651 0.54298 1.084 0.15546 0.28751 0.42506 0.7578 0.59766 1.043 0.17227 0.28511 0.45435 0.72569 0.62695 0.98049 0.17287 0.2545 0.47686 0.68049 0.67578 0.94529 0.19898 0.2647 0.53781 0.68976 0.75195 0.94531 0.21368 0.25571 0.62899 0.7223 0.92383 1.0371 0.29472 0.31482 0.7678 0.78484 1.0508 1.043 0.28331 0.2581 0.69787 0.62113 0.92188 0.80858 0.22419 0.18698 0.64058 0.51639 0.92578 0.73046 0.28511 0.21399 0.77818 0.56066 1.0938 0.76954 0.31594 0.20858 0.8066 0.51494 1.0918 0.68163 0.28511 0.16657 0.82728 0.45966 1.2051 0.65042 0.37818 0.19118 0.97881 0.47158 1.334 0.62302 0.35558 0.15156 0.88079 0.35798 1.166 0.46095 0.28511 0.10294 0.76867 0.26591 1.0742 0.36131 0.30558 0.0948 0.88748 0.25391 1.2949 0.35355 0.40741 0.0993 1.0156 0.23139 1.3516 0.29291 0.33631 0.0612 0.86239 0.14376 1.168 0.18367 0.30558 0.0399 0.78904 0.0942 1.0742 0.12125 0.33706 0.0318 1.0501 0.048 2.0371 0.0468 1.1608-0.001 1.6618-0.018 2.1289-0.0663 0.33632-0.0348 0.84568-0.096 1.1309-0.13686 0.28512-0.0411 0.78536-0.12575 1.1113-0.18757 0.32596-0.0618 0.8337-0.16987 1.1289-0.2401 0.29562-0.0708 0.79238-0.20318 1.1035-0.29502 0.31114-0.0915 0.78542-0.24459 1.0547-0.33787 0.26921-0.0933 0.68917-0.25 0.93358-0.34766 0.2446-0.0978 0.61483-0.253 0.82227-0.34571 0.20768-0.0924 0.65057-0.30477 0.98244-0.4707 0.33223-0.16627 0.83788-0.4359 1.123-0.59961 0.28511-0.16387 0.8021-0.48386 1.1484-0.71093 0.3463-0.22689 0.87803-0.60095 1.1836-0.83205 0.30558-0.23109 0.74498-0.57929 0.9746-0.77148 0.2299-0.19268 0.66489-0.58013 0.96681-0.86132 0.30222-0.28151 0.78319-0.7659 1.0703-1.0781 0.28751-0.3126 0.67463-0.75245 0.86131-0.97655 0.18697-0.22419 0.52779-0.65817 0.75783-0.96486 0.22959-0.30669 0.59292-0.82362 0.80663-1.1484 0.21369-0.32485 0.54226-0.85766 0.72851-1.1836 0.18667-0.32595 0.45252-0.81692 0.59181-1.0918 0.13925-0.27521 0.34813-0.71764 0.46482-0.98244 0.11705-0.26501 0.29622-0.68889 0.39844-0.94337 0.10234-0.2548 0.30732-0.83109 0.4551-1.2793 0.14796-0.4482 0.3449-1.1138 0.43748-1.4805 0.0927-0.36672 0.21819-0.92467 0.27942-1.2402 0.0606-0.31593 0.14465-0.79933 0.18547-1.0742 0.0411-0.27521 0.10444-0.78452 0.14075-1.1308 0.0525-0.4982 0.0672-0.9422 0.0663-2.1289-0.00069-1.2968-0.012-1.6035-0.084-2.2598-0.0456-0.41783-0.12545-1.0519-0.17767-1.4082-0.0519-0.35669-0.14406-0.92188-0.20498-1.2578-0.0615-0.33631-0.18638-0.94607-0.27731-1.3535-0.0906-0.40741-0.2332-0.99889-0.31639-1.3145-0.0828-0.31594-0.2407-0.88304-0.35156-1.2598-0.11104-0.37707-0.28751-0.94226-0.39064-1.2578-0.10324-0.31594-0.32488-0.95921-0.49414-1.4277-0.16927-0.46855-0.43175-1.1676-0.58397-1.5547-0.15217-0.38706-0.42641-1.0622-0.6094-1.5-0.18307-0.43782-0.49219-1.1559-0.68553-1.5938-0.19358-0.43778-0.52911-1.178-0.74805-1.6465-0.21878-0.46855-0.72079-1.4948-1.1152-2.2793-0.39409-0.78448-0.91861-1.8016-1.166-2.2598-0.24729-0.45855-0.61707-1.1333-0.82226-1.5-0.20528-0.36669-0.61144-1.0753-0.90039-1.5742-0.28932-0.49931-0.7967-1.3562-1.1289-1.9063-0.33262-0.55003-0.86632-1.4197-1.1875-1.9316-0.32077-0.51152-0.86239-1.3613-1.2032-1.8887-0.34076-0.52707-0.98283-1.5003-1.4258-2.1621-0.44261-0.66227-1.034-1.5379-1.3144-1.9453-0.28031-0.40744-0.88979-1.2748-1.3535-1.9297-0.4641-0.65447-1.598-2.2384-2.5215-3.5195-0.92305-1.2808-2.2038-3.066-2.8457-3.9668-0.64151-0.90039-1.1751-1.6379-1.1855-1.6387z"
     fill="#000000" /></svg>