<?xml version="1.0" encoding="UTF-8" standalone="no"?>
<svg
   xmlns:dc="http://purl.org/dc/elements/1.1/"
   xmlns:cc="http://creativecommons.org/ns#"
   xmlns:rdf="http://www.w3.org/1999/02/22-rdf-syntax-ns#"
   xmlns:svg="http://www.w3.org/2000/svg"
   xmlns="http://www.w3.org/2000/svg"
   id="svg11"
   xml:space="preserve"
   enable-background="new 0 0 200 200"
   viewBox="0 0 200 200"
   y="0px"
   x="0px"
   version="1.1"><metadata
     id="metadata15"><rdf:RDF><cc:Work
         rdf:about=""><dc:format>image/svg+xml</dc:format><dc:type
           rdf:resource="http://purl.org/dc/dcmitype/StillImage" /></cc:Work></rdf:RDF></metadata><defs
     id="defs50949" /><linearGradient
     spreadMethod="pad"
     y2="30%"
     x2="-10%"
     y1="120%"
     x1="30%"
     id="3d_gradient2-logo-fffa88ff-39a3-40c7-8850-bc50501a916a"><stop
       id="stop50926"
       stop-opacity="1"
       stop-color="#ffffff"
       offset="0%" /><stop
       id="stop50928"
       stop-opacity="1"
       stop-color="#000000"
       offset="100%" /></linearGradient><linearGradient
     gradientTransform="rotate(-30)"
     spreadMethod="pad"
     y2="30%"
     x2="-10%"
     y1="120%"
     x1="30%"
     id="3d_gradient3-logo-fffa88ff-39a3-40c7-8850-bc50501a916a"><stop
       id="stop50931"
       stop-opacity="1"
       stop-color="#ffffff"
       offset="0%" /><stop
       id="stop50933"
       stop-opacity="1"
       stop-color="#cccccc"
       offset="50%" /><stop
       id="stop50935"
       stop-opacity="1"
       stop-color="#000000"
       offset="100%" /></linearGradient><path
     style="fill:#ef887a;stroke-width:0.66617334"
     d="m 75.161753,45.510722 c -0.713005,-0.0067 -1.53826,0.0019 -1.833442,0.01889 -0.295201,0.01704 -0.761902,0.04963 -1.037099,0.0726 -0.274829,0.0226 -0.84151,0.08297 -1.259334,0.133715 -0.417431,0.05038 -1.015248,0.133341 -1.327883,0.183717 -0.312609,0.05038 -0.898601,0.158529 -1.302702,0.240382 -0.403728,0.08149 -1.03117,0.221862 -1.394501,0.311869 -0.363357,0.09001 -0.927113,0.240755 -1.253005,0.335205 -0.325945,0.09445 -0.85077,0.255944 -1.166736,0.358908 -0.315573,0.10297 -0.832251,0.283723 -1.148217,0.401136 -0.315573,0.117786 -0.748912,0.28409 -0.96302,0.36928 -0.213715,0.08519 -0.671902,0.280759 -1.018579,0.434099 -0.346317,0.153339 -0.992665,0.460399 -1.436403,0.682294 -0.444098,0.221863 -1.094123,0.564476 -1.44453,0.76117 -0.35076,0.197047 -0.879282,0.507438 -1.174864,0.689689 -0.295201,0.182232 -0.811932,0.515585 -1.148216,0.740385 -0.336318,0.224827 -0.794478,0.541886 -1.018579,0.704146 -0.224087,0.162233 -0.624111,0.46299 -0.888942,0.667838 -0.26483,0.204829 -0.718934,0.570405 -1.009719,0.812266 -0.290385,0.241867 -0.790414,0.676365 -1.111177,0.965218 -0.320389,0.288533 -0.866358,0.808535 -1.213035,1.154878 -0.346317,0.346317 -0.824856,0.84191 -1.06268,1.101518 -0.238163,0.259275 -0.622632,0.69262 -0.8545,0.96302 -0.231495,0.270013 -0.588185,0.699282 -0.791881,0.95416 -0.204088,0.254458 -0.52114,0.663003 -0.704878,0.907462 -0.183717,0.244459 -0.540772,0.739652 -0.793412,1.100451 -0.252606,0.361133 -0.672635,0.997129 -0.933042,1.41342 -0.260754,0.416692 -0.657074,1.079667 -0.881548,1.473776 -0.224087,0.394094 -0.628554,1.157876 -0.898934,1.697876 -0.270013,0.53966 -0.605218,1.239682 -0.744515,1.555648 -0.139271,0.315573 -0.410023,0.965618 -0.601888,1.44453 -0.191491,0.478919 -0.505213,1.337143 -0.697084,1.907521 -0.191864,0.570404 -0.431507,1.328616 -0.532992,1.685285 -0.101485,0.356316 -0.260014,0.948231 -0.351873,1.314893 -0.09222,0.366689 -0.224826,0.933376 -0.295201,1.259334 -0.07037,0.325946 -0.178161,0.867824 -0.239276,1.203776 -0.06111,0.335944 -0.153713,0.886343 -0.205568,1.222294 -0.05185,0.335945 -0.127412,0.886344 -0.167789,1.222295 -0.04037,0.335945 -0.09927,0.885611 -0.13075,1.22083 -0.03148,0.335205 -0.0763,1.056351 -0.100006,1.602679 -0.03222,0.75744 -0.03222,1.241548 0.0015,2.038624 0.02408,0.575221 0.06815,1.295641 0.09778,1.601214 0.02963,0.305574 0.08816,0.811133 0.129637,1.123768 0.04148,0.312609 0.117414,0.812665 0.168529,1.111178 0.05111,0.298538 0.151861,0.818194 0.223714,1.154145 0.07185,0.335944 0.180753,0.8104 0.241868,1.054486 0.06112,0.243719 0.200751,0.75191 0.310017,1.129696 0.109639,0.377428 0.300018,0.983406 0.42336,1.346403 0.123342,0.362985 0.332614,0.941903 0.464842,1.286714 0.132229,0.344465 0.364097,0.914123 0.514846,1.265996 0.150748,0.3515 0.410023,0.930778 0.576333,1.287513 0.165937,0.356317 0.461878,0.956359 0.657073,1.333413 0.195196,0.376688 0.521514,0.98527 0.725197,1.351932 0.203715,0.366689 0.595219,1.041562 0.870022,1.500089 0.27483,0.458174 0.675233,1.108244 0.890074,1.444534 0.214455,0.33594 0.688957,1.05968 1.054486,1.60747 0.36521,0.54819 0.874153,1.29824 1.13043,1.66677 0.25631,0.36891 0.699282,0.99526 0.984471,1.3927 0.284829,0.39706 0.89487,1.2223 1.355263,1.83345 0.460399,0.61114 1.073405,1.41122 1.361925,1.77788 0.288533,0.36669 0.802272,1.00819 1.141155,1.42601 0.339282,0.41743 0.869289,1.05895 1.178194,1.42528 0.308904,0.36669 0.844108,0.99153 1.189319,1.38897 0.345204,0.3978 0.920052,1.04782 1.277121,1.44526 0.357429,0.39706 0.974878,1.07194 1.372317,1.49936 0.397799,0.42743 1.116707,1.18599 1.598217,1.68528 0.48151,0.49966 1.43154,1.45859 2.111236,2.13123 0.679697,0.67263 1.561178,1.53086 1.958283,1.90752 0.397433,0.37668 1.056018,0.99299 1.463783,1.36972 0.407805,0.37706 1.541192,1.40269 2.518668,2.27904 0.977477,0.87668 2.452384,2.19384 3.27724,2.92723 0.825256,0.73299 2.141947,1.89826 2.9261,2.58982 0.784486,0.69115 1.69268,1.49156 2.018639,1.77901 0.325945,0.28706 1.459319,1.28006 2.518668,2.20677 1.059349,0.92638 2.759423,2.40942 3.778002,3.29576 1.018579,0.88634 4.002103,3.47689 6.630024,5.75667 2.627921,2.27978 5.867388,5.09363 7.198669,6.25257 1.331215,1.15934 2.920904,2.54012 3.532451,3.06873 0.611144,0.52892 1.132694,0.95636 1.158944,0.95003 0.0259,-0.006 0.52817,-0.41929 1.11597,-0.91859 0.58782,-0.49929 1.89273,-1.6138 2.89979,-2.47716 1.00672,-0.86376 2.39049,-2.05528 3.07425,-2.64831 0.68376,-0.59299 2.05162,-1.78601 3.03982,-2.6509 0.9882,-0.86523 2.44646,-2.14788 3.24093,-2.85089 0.79448,-0.70302 1.99459,-1.76976 2.66683,-2.37091 0.67223,-0.60078 1.81419,-1.62567 2.53719,-2.27752 0.72339,-0.65189 1.87308,-1.69421 2.5557,-2.31608 0.68263,-0.62226 1.89047,-1.73119 2.68462,-2.46458 0.79414,-0.73372 1.84416,-1.70753 2.33347,-2.16459 0.48928,-0.45707 1.49789,-1.4071 2.24127,-2.11124 0.74338,-0.70415 1.78455,-1.69714 2.31382,-2.20643 0.52929,-0.50929 1.73791,-1.68602 2.68575,-2.61533 0.94783,-0.92892 2.332,-2.31236 3.07612,-3.07426 0.74371,-0.7615 1.71047,-1.7601 2.14827,-2.21862 0.43744,-0.45818 1.01339,-1.06675 1.27932,-1.35194 0.26594,-0.28483 0.75784,-0.81892 1.09266,-1.18672 0.33483,-0.36743 0.90153,-1.00079 1.25934,-1.40749 0.35779,-0.40632 0.88301,-1.01411 1.16713,-1.35007 0.28409,-0.33631 0.79261,-0.95302 1.1301,-1.37045 0.33742,-0.4178 0.76303,-0.95116 0.94636,-1.18525 0.18297,-0.23446 0.52411,-0.67597 0.75784,-0.98154 0.23372,-0.30558 0.70854,-0.93897 1.05522,-1.40749 0.34668,-0.46855 0.8982,-1.22709 1.22563,-1.68529 0.32779,-0.45855 0.92451,-1.30863 1.32601,-1.889 0.40188,-0.58078 1.20158,-1.76416 1.77676,-2.62979 0.57559,-0.86595 1.3386,-2.0249 1.69601,-2.57569 0.35705,-0.55078 0.80154,-1.255271 0.98707,-1.565308 0.18556,-0.310017 0.49077,-0.843043 0.67783,-1.18379 0.18741,-0.341134 0.48595,-0.920052 0.66374,-1.286714 0.17741,-0.366689 0.47262,-1.016714 0.65559,-1.444531 0.18335,-0.427803 0.44114,-1.069674 0.57374,-1.42601 0.13223,-0.356689 0.33558,-0.940038 0.45114,-1.296374 0.11593,-0.356689 0.29928,-0.964885 0.40743,-1.351932 0.10815,-0.38706 0.27261,-1.037099 0.36595,-1.44453 0.0933,-0.407432 0.21964,-1.015981 0.28076,-1.351932 0.0611,-0.335945 0.14482,-0.835981 0.18556,-1.111178 0.0408,-0.275202 0.0993,-0.700015 0.12964,-0.9445 0.0304,-0.244459 0.0811,-0.727795 0.11186,-1.074138 0.0311,-0.346317 0.0733,-0.937839 0.0937,-1.314893 0.0207,-0.377061 0.0374,-1.160074 0.0374,-1.740844 0,-0.580777 -0.017,-1.36379 -0.0374,-1.740845 -0.0207,-0.37706 -0.0634,-0.977076 -0.0945,-1.333412 -0.0311,-0.356689 -0.0978,-0.973413 -0.14741,-1.370452 -0.05,-0.397432 -0.14223,-1.030437 -0.20482,-1.407491 -0.0626,-0.377061 -0.17891,-1.001925 -0.25817,-1.388971 -0.0793,-0.387061 -0.2352,-1.070408 -0.34669,-1.518609 -0.11149,-0.448175 -0.29446,-1.131562 -0.40669,-1.518609 -0.11223,-0.38706 -0.30669,-1.011917 -0.43225,-1.388972 -0.12593,-0.37706 -0.36002,-1.038963 -0.52114,-1.471576 -0.16075,-0.43262 -0.43224,-1.115974 -0.60337,-1.518609 -0.17149,-0.402615 -0.44706,-1.024109 -0.613,-1.380445 -0.16593,-0.356689 -0.47373,-0.98154 -0.68409,-1.388971 -0.21039,-0.407432 -0.5504,-1.035234 -0.75558,-1.3953 -0.20519,-0.36002 -0.49336,-0.851903 -0.64004,-1.092658 -0.14667,-0.241128 -0.48706,-0.771495 -0.75637,-1.178927 -0.26927,-0.407431 -0.70261,-1.032635 -0.96302,-1.388971 -0.26001,-0.356689 -0.63188,-0.848172 -0.82632,-1.092658 -0.19409,-0.244459 -0.5204,-0.644483 -0.7252,-0.888942 -0.20483,-0.244458 -0.59485,-0.690422 -0.86709,-0.991199 -0.27186,-0.300757 -0.75524,-0.809334 -1.07454,-1.130096 -0.31891,-0.320763 -0.80487,-0.789682 -1.08006,-1.041895 -0.27483,-0.25224 -0.74152,-0.660778 -1.0371,-0.907862 -0.2952,-0.24705 -0.75378,-0.617076 -1.01858,-0.821924 -0.26483,-0.204455 -0.723,-0.545216 -1.01858,-0.756707 -0.2952,-0.211496 -0.82039,-0.570031 -1.16674,-0.796743 -0.34631,-0.227052 -0.8545,-0.547068 -1.12969,-0.711873 -0.27483,-0.164824 -0.71674,-0.418916 -0.98154,-0.564475 -0.26483,-0.145932 -0.86489,-0.454104 -1.33341,-0.685226 -0.46855,-0.230756 -1.14342,-0.544104 -1.50009,-0.696351 -0.35632,-0.151861 -0.91486,-0.376321 -1.24082,-0.498917 -0.32594,-0.12223 -0.9008,-0.323354 -1.27785,-0.447062 -0.37669,-0.123342 -0.86003,-0.274091 -1.07414,-0.335206 -0.21371,-0.06074 -0.61374,-0.168528 -0.88894,-0.239276 -0.27483,-0.07075 -0.73599,-0.18038 -1.02451,-0.24298 -0.28816,-0.06297 -0.84671,-0.171493 -1.24081,-0.241494 -0.3941,-0.07 -1.07487,-0.169268 -1.51268,-0.220757 -0.43818,-0.05148 -1.03784,-0.115195 -1.33342,-0.141488 -0.34298,-0.03037 -1.13935,-0.04741 -2.20383,-0.04704 -1.3045,3.7e-4 -1.82378,0.01482 -2.38903,0.06667 -0.39706,0.03667 -1.03044,0.107414 -1.40749,0.15779 -0.37706,0.05038 -0.96855,0.142228 -1.3149,0.204828 -0.34631,0.06223 -0.8545,0.163346 -1.12969,0.224827 -0.27521,0.06149 -0.69189,0.16112 -0.92598,0.221496 -0.23409,0.06 -0.67597,0.182604 -0.98154,0.272238 -0.30558,0.09001 -0.84711,0.262239 -1.20378,0.382983 -0.35632,0.121117 -0.92338,0.327797 -1.25933,0.460026 -0.33595,0.131863 -0.82786,0.335578 -1.09266,0.452991 -0.26483,0.117047 -0.76483,0.3515 -1.11118,0.521141 -0.34631,0.169641 -0.86303,0.436324 -1.14821,0.592255 -0.28521,0.156304 -0.78522,0.443731 -1.11118,0.6393 -0.32595,0.195195 -0.89267,0.556701 -1.25934,0.803005 -0.36668,0.246311 -0.86669,0.595592 -1.11117,0.775959 -0.24446,0.18038 -0.71934,0.548181 -1.05562,0.817062 -0.33595,0.269273 -0.81933,0.671902 -1.07414,0.89487 -0.25446,0.222609 -0.60448,0.536696 -0.77782,0.697817 -0.17297,0.160747 -0.57708,0.544477 -0.89707,0.852302 l -0.58263,0.560032 0.2652,0.367801 c 0.14593,0.202237 0.8645,1.201177 1.59642,2.219756 0.73226,1.018579 1.33714,1.858291 1.34414,1.866418 0.007,0.0078 0.35039,-0.315573 0.76377,-0.718934 0.41298,-0.403355 1.00632,-0.963753 1.31822,-1.245611 0.31187,-0.281871 0.77856,-0.689689 1.0371,-0.905996 0.25853,-0.216306 0.73226,-0.591149 1.05302,-0.832983 0.32076,-0.241495 0.82932,-0.603367 1.1297,-0.804138 0.30076,-0.200385 0.73858,-0.481137 0.97268,-0.624111 0.23408,-0.142601 0.66003,-0.386687 0.94636,-0.542252 0.28594,-0.155938 0.81113,-0.42336 1.16674,-0.594107 0.35557,-0.170753 0.87302,-0.404467 1.15008,-0.518922 0.27705,-0.114822 0.76044,-0.30113 1.07414,-0.414466 0.31372,-0.113343 0.83891,-0.287794 1.16673,-0.38706 0.32817,-0.09963 0.86969,-0.24779 1.20378,-0.329277 0.33409,-0.08149 0.86596,-0.197787 1.18152,-0.258901 0.31595,-0.06112 0.816,-0.144826 1.11118,-0.185936 0.29558,-0.04148 0.69562,-0.09222 0.88894,-0.113343 0.19372,-0.02074 0.58522,-0.05482 0.87042,-0.07519 0.28521,-0.02074 1.00713,-0.03741 1.60415,-0.03778 0.59707,0 1.33048,0.01741 1.62973,0.03889 0.29927,0.02148 0.82632,0.07149 1.1712,0.111491 0.34483,0.04 0.87821,0.115194 1.18525,0.167049 0.30705,0.05185 0.79155,0.143714 1.07674,0.203716 0.2852,0.06037 0.77116,0.175936 1.08006,0.25705 0.30854,0.08111 0.80854,0.224087 1.11118,0.317798 0.30224,0.09371 0.82079,0.269647 1.15228,0.390764 0.3315,0.12075 0.82226,0.312608 1.09079,0.425578 0.26854,0.11297 0.75411,0.329649 1.07861,0.48151 0.32483,0.151861 0.8423,0.411136 1.15008,0.5767 0.3078,0.165564 0.78488,0.434098 1.05968,0.597071 0.2752,0.162972 0.78335,0.483362 1.1297,0.712272 0.34631,0.228904 0.89633,0.614852 1.22229,0.857432 0.32595,0.24298 0.79261,0.605592 1.0371,0.806336 0.24446,0.200752 0.653,0.551885 0.90746,0.780422 0.25483,0.228904 0.79634,0.755241 1.20418,1.170067 0.40743,0.41484 0.97341,1.025974 1.25746,1.357462 0.28372,0.331874 0.71334,0.857098 0.9545,1.166736 0.24112,0.310017 0.58151,0.763768 0.75637,1.008187 0.17446,0.244459 0.50447,0.727794 0.73339,1.074137 0.22853,0.346317 0.56596,0.879682 0.74931,1.185256 0.18335,0.305574 0.46855,0.800407 0.63411,1.099719 0.16557,0.299279 0.45188,0.845241 0.63597,1.213035 0.18408,0.367801 0.46113,0.947832 0.61559,1.288246 0.15408,0.340761 0.43595,1.011518 0.62633,1.49083 0.19002,0.479285 0.43966,1.14675 0.55485,1.482702 0.11519,0.335944 0.30891,0.9445 0.43114,1.351932 0.12186,0.407431 0.3115,1.107446 0.4215,1.555648 0.10964,0.448175 0.25928,1.120437 0.33224,1.49416 0.073,0.373357 0.17335,0.940037 0.22335,1.259334 0.0496,0.318911 0.11556,0.788217 0.14705,1.043028 0.0311,0.254458 0.0815,0.750044 0.1126,1.100785 0.0307,0.35076 0.0719,1.07154 0.0915,1.601547 0.023,0.622999 0.023,1.310097 -3.8e-4,1.941629 -0.02,0.537808 -0.0611,1.241947 -0.0919,1.565308 -0.0307,0.32298 -0.0819,0.79561 -0.11371,1.050422 -0.0318,0.254458 -0.1063,0.751177 -0.16519,1.10305 -0.0589,0.352245 -0.1826,0.978608 -0.27483,1.391902 -0.0918,0.412988 -0.25816,1.066744 -0.36928,1.452325 -0.11075,0.385581 -0.29483,0.973745 -0.40817,1.306765 -0.11371,0.33298 -0.30002,0.841511 -0.4141,1.129697 -0.11409,0.288167 -0.29891,0.732258 -0.41077,0.987069 -0.11185,0.254458 -0.36557,0.788217 -0.56373,1.185656 -0.19816,0.397798 -0.50522,0.977809 -0.68263,1.289311 -0.17705,0.31187 -0.4441,0.761503 -0.59337,0.99966 -0.14964,0.238164 -0.54299,0.849704 -0.87448,1.358994 -0.33188,0.509289 -1.05342,1.600814 -1.60382,2.42607 -0.5504,0.824855 -1.30116,1.933435 -1.66823,2.463105 -0.36743,0.52966 -0.91785,1.31303 -1.22342,1.74084 -0.30558,0.42781 -0.9441,1.29898 -1.41895,1.93644 -0.47484,0.63707 -1.16154,1.53713 -1.52567,2.00012 -0.36447,0.46261 -0.91339,1.14675 -1.22043,1.52007 -0.30669,0.37298 -0.86303,1.03084 -1.23602,1.46119 -0.37299,0.43076 -1.00299,1.14195 -1.40043,1.58042 -0.39706,0.43855 -0.97082,1.06455 -1.27492,1.39084 -0.30372,0.32595 -0.91193,0.96782 -1.3508,1.42641 -0.43929,0.45818 -1.39044,1.4386 -2.11417,2.17826 -0.72373,0.74005 -2.20757,2.21569 -3.29763,3.27943 -1.09005,1.06375 -2.22348,2.1672 -2.51906,2.45166 -0.29557,0.28446 -1.14562,1.09305 -1.889,1.79713 -0.74339,0.70415 -1.75197,1.65418 -2.24088,2.11124 -0.48928,0.45706 -1.54825,1.43933 -2.35312,2.18311 -0.80527,0.74339 -2.10498,1.93604 -2.88866,2.64978 -0.78376,0.71373 -2.09159,1.89752 -2.90645,2.63051 -0.81486,0.73339 -2.09012,1.87495 -2.8335,2.53759 -0.74339,0.66226 -1.92678,1.71233 -2.62979,2.33387 -0.70261,0.62115 -2.13602,1.87974 -3.18537,2.79607 -1.04896,0.91638 -2.5242,2.19977 -3.27798,2.85128 -0.75377,0.6519 -1.60674,1.38898 -1.89606,1.63786 -0.2889,0.24927 -0.543,0.45299 -0.56448,0.45299 -0.0219,0 -0.86856,-0.72153 -1.88234,-1.60341 -1.013383,-0.88155 -3.992844,-3.4687 -6.620764,-5.74888 -2.627921,-2.28011 -5.744813,-4.98731 -6.926205,-6.01594 -1.181525,-1.02898 -3.014967,-2.62939 -4.074316,-3.55724 -1.059349,-0.92744 -2.709394,-2.37757 -3.666885,-3.22201 -0.957491,-0.84451 -2.490888,-2.20237 -3.40761,-3.01757 -0.916721,-0.81526 -2.400156,-2.14201 -3.296492,-2.94795 -0.896336,-0.80593 -1.896396,-1.71339 -2.222354,-2.01677 -0.325945,-0.30298 -1.050822,-0.9882 -1.611207,-1.52267 -0.560032,-0.53448 -1.602347,-1.56085 -2.315685,-2.28085 -0.713738,-0.72006 -1.588624,-1.61787 -1.94456,-1.99459 -0.356316,-0.37706 -0.92265,-0.9856 -1.259334,-1.35193 -0.336684,-0.36669 -0.87855,-0.96675 -1.204908,-1.33341 -0.325945,-0.36669 -0.935641,-1.06674 -1.354131,-1.55565 -0.418916,-0.48892 -1.068608,-1.26413 -1.443797,-1.72232 -0.375575,-0.45855 -0.965219,-1.19192 -1.311163,-1.62973 -0.345577,-0.43818 -0.978941,-1.26306 -1.407491,-1.83344 -0.428176,-0.57041 -1.063412,-1.43714 -1.411554,-1.92604 -0.347796,-0.48892 -0.833383,-1.1808 -1.078602,-1.53713 -0.245198,-0.35669 -0.7204,-1.064875 -1.055618,-1.574165 -0.335145,-0.509283 -0.809274,-1.251201 -1.05336,-1.64824 C 50.280365,96.875773 49.90479,96.242435 49.689976,95.865714 49.475148,95.488653 49.152534,94.905625 48.972907,94.570073 48.793266,94.234129 48.505839,93.667408 48.33398,93.310739 48.16212,92.953684 47.921732,92.436587 47.799875,92.16179 47.677646,91.886587 47.477634,91.411745 47.355404,91.106172 47.232802,90.800598 47.043162,90.303166 46.933896,90.000924 46.824631,89.698681 46.652398,89.181997 46.550913,88.852707 46.449795,88.523431 46.291639,87.9623 46.19978,87.605964 c -0.09186,-0.35669 -0.2252,-0.940038 -0.296687,-1.296374 -0.07111,-0.356689 -0.17112,-0.940037 -0.222235,-1.296373 -0.05112,-0.356689 -0.117413,-0.948231 -0.147045,-1.314893 -0.03,-0.366688 -0.06482,-0.958557 -0.07704,-1.314893 -0.01259,-0.356689 -0.0052,-1.02191 0.01629,-1.478638 0.02148,-0.457062 0.06482,-1.09046 0.0963,-1.407491 0.03148,-0.317425 0.09001,-0.835582 0.130377,-1.151148 0.04037,-0.315946 0.123708,-0.874153 0.185196,-1.240815 0.06149,-0.366688 0.162233,-0.916721 0.22446,-1.222294 0.06186,-0.305574 0.177789,-0.828187 0.257423,-1.161207 0.07963,-0.333353 0.237791,-0.933376 0.35076,-1.333413 0.113343,-0.400397 0.311869,-1.044493 0.440767,-1.43154 0.129264,-0.38706 0.326685,-0.945633 0.438915,-1.240814 0.112597,-0.295575 0.312242,-0.795611 0.444471,-1.111177 0.131862,-0.315946 0.359281,-0.83265 0.505586,-1.148217 0.145932,-0.315946 0.412987,-0.858564 0.593367,-1.206373 0.18038,-0.347796 0.487066,-0.91006 0.681495,-1.249342 0.194456,-0.339282 0.498178,-0.846373 0.675234,-1.127098 0.176675,-0.280386 0.46373,-0.718535 0.638187,-0.973013 0.174084,-0.254831 0.482989,-0.688157 0.686358,-0.96302 0.203343,-0.275203 0.537069,-0.708542 0.742251,-0.963021 0.204828,-0.254831 0.572629,-0.696351 0.816728,-0.981539 0.244459,-0.285203 0.86969,-0.944901 1.389705,-1.466381 0.520028,-0.521141 1.145618,-1.122302 1.390104,-1.336011 0.244459,-0.213715 0.641518,-0.550406 0.882613,-0.748179 0.240755,-0.197787 0.665966,-0.530774 0.9445,-0.740052 0.278534,-0.209272 0.698217,-0.513367 0.93231,-0.675966 0.23446,-0.1626 0.681495,-0.458174 0.993731,-0.657074 0.312242,-0.199272 0.828919,-0.511881 1.148216,-0.695618 0.319277,-0.183344 0.955626,-0.520774 1.41382,-0.749645 0.458547,-0.22927 1.133427,-0.544104 1.500089,-0.700015 0.366688,-0.155938 0.883412,-0.365576 1.148216,-0.465582 0.264831,-0.09963 0.790015,-0.282977 1.166736,-0.407058 0.377061,-0.124082 0.86043,-0.27557 1.074138,-0.336684 0.214088,-0.06149 0.66263,-0.178901 0.997462,-0.2615 0.334832,-0.08223 0.901532,-0.208532 1.259334,-0.280019 0.357801,-0.07185 0.992665,-0.179641 1.410089,-0.239276 0.417804,-0.05964 1.017446,-0.133715 1.333413,-0.164825 0.315946,-0.03148 0.882613,-0.07371 1.259334,-0.09445 0.37706,-0.02074 0.987468,-0.03778 1.357128,-0.03778 0.369653,0 0.844841,0.01741 1.055618,0.03852 0.211124,0.02111 0.583741,0.07185 0.828187,0.112597 0.244459,0.04074 0.718934,0.141122 1.054153,0.223348 0.335578,0.08223 0.908927,0.248902 1.274123,0.369653 0.365576,0.121117 0.941569,0.330762 1.279319,0.465582 0.33817,0.13482 0.940037,0.393728 1.337143,0.575587 0.397433,0.182232 1.03077,0.490397 1.407491,0.685625 0.377061,0.19483 0.951896,0.504107 1.277854,0.686692 0.325946,0.182971 0.92305,0.531886 1.326751,0.775226 0.403728,0.243346 1.045226,0.64337 1.426011,0.888942 0.380391,0.245571 0.983738,0.647813 1.340074,0.893738 0.356689,0.245938 0.881547,0.613739 1.166736,0.817461 0.285202,0.203716 0.885211,0.645222 1.333413,0.98154 0.448175,0.336318 1.120037,0.851503 1.493027,1.145285 0.372984,0.293723 0.682628,0.527809 0.688158,0.520775 0.0055,-0.0074 0.713005,-0.998594 1.571969,-2.202703 0.858964,-1.204175 1.561577,-2.204234 1.560844,-2.222354 0.008,-0.01599 -0.2698,-0.24715 -0.608216,-0.512287 -0.339083,-0.265137 -0.965952,-0.744782 -1.393635,-1.066544 -0.427683,-0.321762 -1.171133,-0.865359 -1.651444,-1.207106 -0.480311,-0.341081 -1.081865,-0.762768 -1.33701,-0.93664 -0.254478,-0.173205 -0.779422,-0.520947 -1.166469,-0.772095 -0.38706,-0.251127 -0.995263,-0.634483 -1.351932,-0.851902 -0.356317,-0.217419 -0.882613,-0.529661 -1.169334,-0.694486 -0.286682,-0.164824 -0.77003,-0.436323 -1.074138,-0.603739 -0.304095,-0.167416 -0.961155,-0.506699 -1.460452,-0.754508 -0.498917,-0.247424 -1.165604,-0.563736 -1.48157,-0.70228 -0.315573,-0.138524 -0.816728,-0.348909 -1.113042,-0.467434 -0.296687,-0.118526 -0.796744,-0.307053 -1.111177,-0.418917 -0.314834,-0.11223 -0.797077,-0.272611 -1.072273,-0.357428 -0.27483,-0.08445 -0.791547,-0.226679 -1.148216,-0.316313 -0.356317,-0.09001 -0.881548,-0.206307 -1.166737,-0.258535 -0.285202,-0.05259 -0.768564,-0.129637 -1.074137,-0.171493 -0.4504,-0.06149 -0.80154,-0.07816 -1.851962,-0.08816 z m 25.797567,11.205702 c -0.01,-3.7e-4 -0.83225,1.145286 -1.827117,2.545715 -0.994863,1.40043 -2.399756,3.371304 -3.122021,4.37989 -0.722265,1.008187 -1.651977,2.316818 -2.065671,2.90758 -0.413727,0.590776 -0.974478,1.398964 -1.246343,1.796403 -0.271499,0.39706 -0.853368,1.263798 -1.293043,1.926041 -0.439654,0.66189 -1.056351,1.603812 -1.370452,2.092717 -0.314094,0.488918 -0.831517,1.305633 -1.150081,1.815322 -0.318538,0.509663 -0.88781,1.443065 -1.265663,2.074198 -0.3778,0.631146 -0.928912,1.572702 -1.224493,2.092317 -0.295941,0.519289 -0.729327,1.294508 -0.963021,1.722325 -0.23372,0.427803 -0.655967,1.219696 -0.937838,1.759363 -0.281872,0.539661 -0.723731,1.414886 -0.98194,1.94456 -0.258162,0.529662 -0.627815,1.304501 -0.821925,1.722325 -0.193716,0.417431 -0.472989,1.034501 -0.620407,1.370452 -0.147784,0.335944 -0.384469,0.886344 -0.52633,1.222295 -0.141862,0.335944 -0.358168,0.861162 -0.481137,1.166736 -0.122969,0.305574 -0.306313,0.772295 -0.407432,1.037098 -0.101485,0.264831 -0.322241,0.864893 -0.491143,1.333413 -0.168901,0.468546 -0.424839,1.210104 -0.568925,1.648246 -0.14408,0.437803 -0.353725,1.115241 -0.466322,1.504886 -0.11223,0.389651 -0.270386,0.973013 -0.351499,1.296373 -0.08149,0.323354 -0.197421,0.812665 -0.258162,1.087861 -0.06074,0.27483 -0.161121,0.783354 -0.222975,1.129697 -0.06185,0.346317 -0.146305,0.874886 -0.187788,1.174863 -0.04148,0.300018 -0.100745,0.8082 -0.131489,1.1297 -0.03111,0.3215 -0.07185,0.96781 -0.09037,1.4364 -0.02,0.50929 -0.02037,1.19452 -3.71e-4,1.7042 0.01852,0.46855 0.05926,1.10192 0.09112,1.4075 0.03186,0.3052 0.100006,0.83005 0.151861,1.16633 0.05186,0.33595 0.14408,0.85264 0.205195,1.14822 0.06074,0.2952 0.168156,0.7667 0.23853,1.04709 0.07037,0.28039 0.209645,0.78042 0.309278,1.11118 0.100006,0.33076 0.27409,0.85563 0.38706,1.16633 0.112596,0.31076 0.288906,0.7641 0.391137,1.00712 0.102231,0.24335 0.303349,0.69562 0.447062,1.00526 0.143341,0.30928 0.388173,0.79781 0.544104,1.08526 0.155565,0.28743 0.424472,0.75598 0.597071,1.04117 0.172233,0.2852 0.454843,0.72672 0.627442,0.98154 0.172972,0.25445 0.477067,0.67969 0.675966,0.9445 0.1989,0.26483 0.53633,0.69042 0.750444,0.94596 0.213716,0.25557 0.629668,0.72227 0.924516,1.0371 0.294835,0.31483 0.767831,0.78415 1.050822,1.0423 0.28335,0.25816 0.698216,0.62262 0.92225,0.81006 0.224088,0.18705 0.640779,0.51559 0.925981,0.72966 0.285202,0.21409 0.777091,0.56041 1.092658,0.7693 0.315946,0.20853 0.807468,0.51558 1.092657,0.68229 0.285202,0.16668 0.827854,0.45892 1.205641,0.64968 0.378173,0.19111 0.978209,0.47113 1.333412,0.62262 0.355577,0.1515 0.879682,0.35966 1.164871,0.46263 0.285202,0.10297 0.768564,0.26483 1.074138,0.36002 0.305574,0.0948 0.888942,0.25409 1.296373,0.35372 0.407432,0.0993 1.015981,0.23076 1.351933,0.29224 0.336317,0.0611 0.861162,0.14371 1.166736,0.18371 0.305573,0.04 0.788949,0.0945 1.074138,0.12149 0.337057,0.0318 1.050082,0.0482 2.037152,0.047 1.16081,-0.001 1.6627,-0.0171 2.12976,-0.0656 0.33631,-0.0348 0.8445,-0.097 1.12969,-0.13779 0.2852,-0.0411 0.78522,-0.12483 1.11118,-0.18668 0.32594,-0.0618 0.83451,-0.17038 1.1297,-0.24112 0.29557,-0.0708 0.79188,-0.20372 1.10305,-0.29558 0.31113,-0.0915 0.78635,-0.24334 1.05561,-0.33669 0.26928,-0.0933 0.68969,-0.24964 0.93411,-0.34742 0.24446,-0.0978 0.61448,-0.25372 0.82193,-0.34632 0.20779,-0.0926 0.64967,-0.30409 0.98154,-0.47003 0.33224,-0.1663 0.83744,-0.43632 1.12263,-0.60004 0.2852,-0.16371 0.80188,-0.48372 1.14822,-0.7108 0.34632,-0.22705 0.87968,-0.60189 1.18525,-0.83299 0.30558,-0.23112 0.74339,-0.57781 0.97302,-0.77003 0.23001,-0.1926 0.66485,-0.5804 0.96675,-0.86156 0.30224,-0.2815 0.78408,-0.76743 1.0712,-1.07966 0.28743,-0.31261 0.67524,-0.75151 0.8619,-0.97562 0.18705,-0.22408 0.52781,-0.65818 0.75784,-0.96488 0.22964,-0.30669 0.59263,-0.82339 0.80633,-1.14822 0.21373,-0.32483 0.54152,-0.85743 0.7278,-1.18339 0.18668,-0.32594 0.45336,-0.81779 0.59263,-1.09265 0.13927,-0.27521 0.34854,-0.71674 0.46521,-0.98154 0.11705,-0.26484 0.29632,-0.69003 0.39855,-0.94451 0.10222,-0.25483 0.30705,-0.82965 0.45483,-1.27785 0.14779,-0.44817 0.34447,-1.11491 0.43707,-1.48157 0.0926,-0.36669 0.21816,-0.92525 0.27928,-1.24081 0.0608,-0.31595 0.14445,-0.79928 0.18519,-1.07414 0.0411,-0.2752 0.10445,-0.78335 0.14075,-1.1297 0.0526,-0.49818 0.0663,-0.94303 0.0656,-2.12975 -6.6e-4,-1.29678 -0.0118,-1.60308 -0.0833,-2.2594 -0.0456,-0.4178 -0.1252,-1.051153 -0.17742,-1.407489 -0.0518,-0.356689 -0.14483,-0.923383 -0.20594,-1.259334 -0.0615,-0.336317 -0.18557,-0.9445 -0.27632,-1.351932 -0.0907,-0.407432 -0.23297,-0.999327 -0.31594,-1.314893 -0.083,-0.315946 -0.2415,-0.882613 -0.35261,-1.259334 -0.11112,-0.377061 -0.28631,-0.943768 -0.38928,-1.259334 -0.10335,-0.315946 -0.32595,-0.957491 -0.49522,-1.426011 -0.16927,-0.468546 -0.43225,-1.168601 -0.58448,-1.555648 -0.15223,-0.38706 -0.42632,-1.06228 -0.60929,-1.500089 -0.18298,-0.437803 -0.49077,-1.154878 -0.6841,-1.592687 -0.19371,-0.437803 -0.53077,-1.179727 -0.74971,-1.648247 -0.2189,-0.468546 -0.72006,-1.493427 -1.11451,-2.277913 -0.3941,-0.784486 -0.91891,-1.801199 -1.16633,-2.259393 -0.24742,-0.458547 -0.61744,-1.133428 -0.82266,-1.50009 -0.2052,-0.366688 -0.60967,-1.07527 -0.8986,-1.574167 -0.28927,-0.49929 -0.79748,-1.357462 -1.1297,-1.907521 -0.33261,-0.550033 -0.86669,-1.418616 -1.18785,-1.930504 -0.32076,-0.511514 -0.8623,-1.361591 -1.20304,-1.889001 -0.34076,-0.52707 -0.98194,-1.500489 -1.42488,-2.162332 -0.44262,-0.662263 -1.0345,-1.537128 -1.31489,-1.94456 -0.28039,-0.407432 -0.88935,-1.276388 -1.35307,-1.931237 -0.4641,-0.654482 -1.59895,-2.238276 -2.5224,-3.51946 -0.92305,-1.280785 -2.20343,-3.06573 -2.84536,-3.96653 -0.64152,-0.900399 -1.17486,-1.63752 -1.18525,-1.638253 z"
     id="icon" /></svg>